<?xml version="1.0" encoding="UTF-8" standalone="no"?>
<!-- Created with Inkscape (http://www.inkscape.org/) -->
<svg
   xmlns:dc="http://purl.org/dc/elements/1.1/"
   xmlns:cc="http://creativecommons.org/ns#"
   xmlns:rdf="http://www.w3.org/1999/02/22-rdf-syntax-ns#"
   xmlns:svg="http://www.w3.org/2000/svg"
   xmlns="http://www.w3.org/2000/svg"
   xmlns:xlink="http://www.w3.org/1999/xlink"
   xmlns:sodipodi="http://sodipodi.sourceforge.net/DTD/sodipodi-0.dtd"
   xmlns:inkscape="http://www.inkscape.org/namespaces/inkscape"
   width="163.85548"
   height="469.92114"
   id="svg7355"
   sodipodi:version="0.32"
   inkscape:version="0.46"
   version="1.0"
   sodipodi:docname="MRI-00e-ChiefWarrantOfficer.svg"
   inkscape:output_extension="org.inkscape.output.svg.inkscape">
  <defs
     id="defs7357">
    <linearGradient
       id="linearGradient3483">
      <stop
         offset="0"
         style="stop-color:#a28b24;stop-opacity:1;"
         id="stop3485" />
      <stop
         id="stop3487"
         style="stop-color:#f8f5d7;stop-opacity:1;"
         offset="0.50767648" />
      <stop
         offset="1"
         style="stop-color:#a28c24;stop-opacity:1;"
         id="stop3489" />
    </linearGradient>
    <linearGradient
       inkscape:collect="always"
       xlink:href="#linearGradient4261"
       id="linearGradient14629"
       gradientUnits="userSpaceOnUse"
       gradientTransform="matrix(0.4453504,0,0,0.4880655,127.80698,482.33889)"
       x1="403.2818"
       y1="433.53098"
       x2="428.90967"
       y2="497.43515" />
    <linearGradient
       inkscape:collect="always"
       xlink:href="#linearGradient4261"
       id="linearGradient14627"
       gradientUnits="userSpaceOnUse"
       gradientTransform="matrix(0.4453504,0,0,0.4880655,127.80698,482.33889)"
       x1="412.39908"
       y1="402.39682"
       x2="426.53271"
       y2="433.86307" />
    <linearGradient
       inkscape:collect="always"
       xlink:href="#linearGradient4261"
       id="linearGradient14625"
       gradientUnits="userSpaceOnUse"
       gradientTransform="matrix(0.1266994,0.4678976,-0.4269476,0.1388516,441.36606,448.67318)"
       x1="299.14307"
       y1="428.98868"
       x2="376.45349"
       y2="414.41544" />
    <linearGradient
       inkscape:collect="always"
       xlink:href="#linearGradient4261"
       id="linearGradient14623"
       gradientUnits="userSpaceOnUse"
       gradientTransform="matrix(0.4453504,0,0,0.4880655,127.80698,482.33889)"
       x1="289.3551"
       y1="417.233"
       x2="352.90753"
       y2="456.47745" />
    <linearGradient
       id="linearGradient4261">
      <stop
         id="stop4263"
         style="stop-color:#a28b24;stop-opacity:1;"
         offset="0" />
      <stop
         offset="0.5"
         style="stop-color:#f8f5d7;stop-opacity:1;"
         id="stop14512" />
      <stop
         id="stop4265"
         style="stop-color:#a28c24;stop-opacity:1;"
         offset="1" />
    </linearGradient>
    <linearGradient
       inkscape:collect="always"
       xlink:href="#linearGradient4261"
       id="linearGradient14621"
       gradientUnits="userSpaceOnUse"
       gradientTransform="matrix(0.4453504,0,0,0.4880655,127.80698,482.33889)"
       x1="394.78284"
       y1="476.92804"
       x2="374.45355"
       y2="437.14233" />
    <linearGradient
       inkscape:collect="always"
       xlink:href="#linearGradient2214"
       id="linearGradient7309"
       gradientUnits="userSpaceOnUse"
       gradientTransform="translate(31.497353,-39.972238)"
       x1="106.71054"
       y1="89.946335"
       x2="107.42513"
       y2="92.387817" />
    <radialGradient
       inkscape:collect="always"
       xlink:href="#linearGradient4344"
       id="radialGradient7307"
       gradientUnits="userSpaceOnUse"
       gradientTransform="matrix(0.626788,2.5482819e-7,-1.320032e-7,0.3246814,41.005526,60.997464)"
       cx="109.87195"
       cy="90.324028"
       fx="109.87195"
       fy="90.324028"
       r="18.833626" />
    <linearGradient
       id="linearGradient2214">
      <stop
         id="stop2216"
         offset="0"
         style="stop-color:white;stop-opacity:1;" />
      <stop
         id="stop2218"
         offset="1"
         style="stop-color:white;stop-opacity:0;" />
    </linearGradient>
    <linearGradient
       inkscape:collect="always"
       xlink:href="#linearGradient2214"
       id="linearGradient6464"
       gradientUnits="userSpaceOnUse"
       gradientTransform="translate(31.497353,-39.972238)"
       x1="106.71054"
       y1="89.946335"
       x2="107.42513"
       y2="92.387817" />
    <linearGradient
       id="linearGradient4344">
      <stop
         style="stop-color:#5a5a25;stop-opacity:1;"
         offset="0"
         id="stop4346" />
      <stop
         style="stop-color:#8f9144;stop-opacity:1;"
         offset="1"
         id="stop4348" />
    </linearGradient>
    <radialGradient
       inkscape:collect="always"
       xlink:href="#linearGradient4344"
       id="radialGradient6462"
       gradientUnits="userSpaceOnUse"
       gradientTransform="matrix(0.626788,2.5482819e-7,-1.320032e-7,0.3246814,41.005526,60.997464)"
       cx="109.87195"
       cy="90.324028"
       fx="109.87195"
       fy="90.324028"
       r="18.833626" />
    <linearGradient
       id="linearGradient15324">
      <stop
         style="stop-color:#e8e0bb;stop-opacity:1;"
         offset="0"
         id="stop15326" />
      <stop
         style="stop-color:#ae9b3c;stop-opacity:1;"
         offset="1"
         id="stop15328" />
    </linearGradient>
    <radialGradient
       inkscape:collect="always"
       xlink:href="#linearGradient15324"
       id="radialGradient15330"
       cx="92.572433"
       cy="48.032219"
       fx="92.572433"
       fy="48.032219"
       r="22.501499"
       gradientTransform="matrix(0.6728434,-0.739785,0.7917028,0.7200632,-15.313993,76.259649)"
       gradientUnits="userSpaceOnUse" />
    <inkscape:perspective
       sodipodi:type="inkscape:persp3d"
       inkscape:vp_x="0 : 526.18109 : 1"
       inkscape:vp_y="0 : 1000 : 0"
       inkscape:vp_z="744.09448 : 526.18109 : 1"
       inkscape:persp3d-origin="372.04724 : 350.78739 : 1"
       id="perspective7363" />
    <linearGradient
       inkscape:collect="always"
       xlink:href="#linearGradient4261"
       id="linearGradient7493"
       gradientUnits="userSpaceOnUse"
       gradientTransform="matrix(0.4453504,0,0,0.4880655,127.80698,482.33889)"
       x1="394.78284"
       y1="476.92804"
       x2="374.45355"
       y2="437.14233" />
    <linearGradient
       inkscape:collect="always"
       xlink:href="#linearGradient4261"
       id="linearGradient7495"
       gradientUnits="userSpaceOnUse"
       gradientTransform="matrix(0.4453504,0,0,0.4880655,127.80698,482.33889)"
       x1="289.3551"
       y1="417.233"
       x2="352.90753"
       y2="456.47745" />
    <linearGradient
       inkscape:collect="always"
       xlink:href="#linearGradient4261"
       id="linearGradient7497"
       gradientUnits="userSpaceOnUse"
       gradientTransform="matrix(0.1266994,0.4678976,-0.4269476,0.1388516,441.36606,448.67318)"
       x1="299.14307"
       y1="428.98868"
       x2="376.45349"
       y2="414.41544" />
    <linearGradient
       inkscape:collect="always"
       xlink:href="#linearGradient4261"
       id="linearGradient7499"
       gradientUnits="userSpaceOnUse"
       gradientTransform="matrix(0.4453504,0,0,0.4880655,127.80698,482.33889)"
       x1="412.39908"
       y1="402.39682"
       x2="426.53271"
       y2="433.86307" />
    <linearGradient
       inkscape:collect="always"
       xlink:href="#linearGradient4261"
       id="linearGradient7501"
       gradientUnits="userSpaceOnUse"
       gradientTransform="matrix(0.4453504,0,0,0.4880655,127.80698,482.33889)"
       x1="403.2818"
       y1="433.53098"
       x2="428.90967"
       y2="497.43515" />
    <linearGradient
       inkscape:collect="always"
       xlink:href="#linearGradient4261"
       id="linearGradient19949"
       gradientUnits="userSpaceOnUse"
       gradientTransform="matrix(0.4453504,0,0,0.4880655,127.80698,482.33889)"
       x1="394.78284"
       y1="476.92804"
       x2="374.45355"
       y2="437.14233" />
    <linearGradient
       inkscape:collect="always"
       xlink:href="#linearGradient4261"
       id="linearGradient19951"
       gradientUnits="userSpaceOnUse"
       gradientTransform="matrix(0.4453504,0,0,0.4880655,127.80698,482.33889)"
       x1="289.3551"
       y1="417.233"
       x2="352.90753"
       y2="456.47745" />
    <linearGradient
       inkscape:collect="always"
       xlink:href="#linearGradient4261"
       id="linearGradient19953"
       gradientUnits="userSpaceOnUse"
       gradientTransform="matrix(0.1266994,0.4678976,-0.4269476,0.1388516,441.36606,448.67318)"
       x1="299.14307"
       y1="428.98868"
       x2="376.45349"
       y2="414.41544" />
    <linearGradient
       inkscape:collect="always"
       xlink:href="#linearGradient4261"
       id="linearGradient19955"
       gradientUnits="userSpaceOnUse"
       gradientTransform="matrix(0.4453504,0,0,0.4880655,127.80698,482.33889)"
       x1="412.39908"
       y1="402.39682"
       x2="426.53271"
       y2="433.86307" />
    <linearGradient
       inkscape:collect="always"
       xlink:href="#linearGradient4261"
       id="linearGradient19957"
       gradientUnits="userSpaceOnUse"
       gradientTransform="matrix(0.4453504,0,0,0.4880655,127.80698,482.33889)"
       x1="403.2818"
       y1="433.53098"
       x2="428.90967"
       y2="497.43515" />
    <linearGradient
       inkscape:collect="always"
       xlink:href="#linearGradient3483"
       id="linearGradient3473"
       x1="330.25797"
       y1="636.60846"
       x2="470.00653"
       y2="638.23334"
       gradientUnits="userSpaceOnUse" />
  </defs>
  <sodipodi:namedview
     id="base"
     pagecolor="#ffffff"
     bordercolor="#666666"
     borderopacity="1.0"
     gridtolerance="10000"
     guidetolerance="10"
     objecttolerance="10"
     inkscape:pageopacity="0.0"
     inkscape:pageshadow="2"
     inkscape:zoom="4.8655088"
     inkscape:cx="83.110856"
     inkscape:cy="75.254522"
     inkscape:document-units="px"
     inkscape:current-layer="layer1"
     showgrid="true"
     inkscape:window-width="1264"
     inkscape:window-height="750"
     inkscape:window-x="0"
     inkscape:window-y="14">
    <inkscape:grid
       type="xygrid"
       id="grid7401"
       visible="true"
       enabled="true" />
  </sodipodi:namedview>
  <metadata
     id="metadata7360">
    <rdf:RDF>
      <cc:Work
         rdf:about="">
        <dc:format>image/svg+xml</dc:format>
        <dc:type
           rdf:resource="http://purl.org/dc/dcmitype/StillImage" />
      </cc:Work>
    </rdf:RDF>
  </metadata>
  <g
     inkscape:label="Layer 1"
     inkscape:groupmode="layer"
     id="layer1"
     transform="translate(-315.25797,-231.68734)">
    <g
       id="g7332"
       transform="translate(314.32856,228.57143)">
      <path
         id="path2391"
         d="M 163.74801,472.00015 L 163.74801,89.21594 L 82.85715,4.15279 L 1.96629,89.21594 L 1.96629,472.00015 L 163.74801,472.00015 z"
         style="fill:#786b36;fill-opacity:1;fill-rule:evenodd;stroke:#000000;stroke-width:2.07376933px;stroke-linecap:butt;stroke-linejoin:miter;stroke-opacity:1" />
      <g
         id="g7311">
        <path
           d="M 67.477883,37.685176 C 76.164453,29.300137 90.085607,29.608899 98.551833,38.374421 C 107.01801,47.139863 106.83913,61.059153 98.152453,69.444183 C 89.465869,77.829203 75.544684,77.520503 67.078506,68.754933 C 58.627779,60.005523 58.786258,46.123713 67.432593,37.728911"
           style="fill:url(#radialGradient15330);fill-opacity:1;stroke:#785c00;stroke-width:1.05942082;stroke-linecap:round;stroke-linejoin:miter;stroke-miterlimit:4;stroke-dashoffset:0;stroke-opacity:1"
           id="path10012" />
        <g
           id="g3590"
           transform="matrix(0.9065283,-0.3299494,0.3299494,0.9065283,-61.309152,53.874971)">
          <g
             transform="translate(31.519625,-39.972239)"
             id="g31958">
            <path
               style="fill:#9a7f46;fill-opacity:1;fill-rule:evenodd;stroke:#a9aa63;stroke-width:0.10170823;stroke-linecap:round;stroke-linejoin:round;marker:none;marker-start:none;marker-mid:none;marker-end:none;stroke-miterlimit:4;stroke-dasharray:none;stroke-dashoffset:0;stroke-opacity:1;visibility:visible;display:inline;overflow:visible;enable-background:accumulate"
               d="M 90.876666,95.767117 L 91.323529,96.826147 C 91.099785,96.638994 90.805545,96.634038 90.638034,96.820904 L 90.360954,96.16425 C 90.626542,96.209819 90.84591,96.037301 90.876666,95.767117 z"
               id="path3800"
               sodipodi:nodetypes="ccccc" />
            <path
               style="fill:#a9aa63;fill-opacity:1;fill-rule:evenodd;stroke:#a9aa63;stroke-width:0.10170823;stroke-linecap:round;stroke-linejoin:round;marker:none;marker-start:none;marker-mid:none;marker-end:none;stroke-miterlimit:4;stroke-dasharray:none;stroke-dashoffset:0;stroke-opacity:1;visibility:visible;display:inline;overflow:visible;enable-background:accumulate"
               d="M 91.09914,94.512232 L 91.431435,94.451506 L 92.009175,95.820702 L 92.148304,96.150425 L 92.727223,97.522416 L 92.430299,97.66697 C 92.188051,97.745999 91.808005,97.748699 91.574064,97.599808 L 91.105977,96.490481 L 90.966848,96.160756 L 90.498761,95.051429 C 90.565641,94.804397 90.856894,94.591265 91.09914,94.512232 z"
               id="path3802" />
            <path
               sodipodi:type="arc"
               style="fill:#d4d6a5;fill-opacity:1;fill-rule:nonzero;stroke:#a9aa63;stroke-width:0.99999988;stroke-linecap:round;stroke-linejoin:round;stroke-miterlimit:4;stroke-dasharray:none;stroke-dashoffset:0;stroke-opacity:1"
               id="path3808"
               sodipodi:cx="1737.4087"
               sodipodi:cy="506.64789"
               sodipodi:rx="6.3972163"
               sodipodi:ry="6.3972163"
               d="M 1743.8059,506.64789 A 6.3972163,6.3972163 0 1 1 1731.0115,506.64789 A 6.3972163,6.3972163 0 1 1 1743.8059,506.64789 z"
               transform="matrix(-0.1016904,3.3176118e-2,3.7729944e-2,8.9416841e-2,247.59543,-6.2889111)" />
            <rect
               style="fill:#d4d6a5;fill-opacity:1;fill-rule:nonzero;stroke:#a9aa63;stroke-width:0.10188773;stroke-linecap:round;stroke-linejoin:round;stroke-miterlimit:4;stroke-dasharray:none;stroke-dashoffset:0;stroke-opacity:1"
               id="rect3798"
               width="0.61193997"
               height="1.8722575"
               x="-86.112473"
               y="119.29958"
               ry="0"
               transform="matrix(-0.9506852,0.3101575,0.3887636,0.9213375,0,0)" />
            <path
               style="fill:url(#radialGradient6462);fill-opacity:1;fill-rule:evenodd;stroke:#a9aa63;stroke-width:0.10170823;stroke-linecap:round;stroke-linejoin:round;marker:none;marker-start:none;marker-mid:none;marker-end:none;stroke-miterlimit:4;stroke-dasharray:none;stroke-dashoffset:0;stroke-opacity:1;visibility:visible;display:inline;overflow:visible;enable-background:accumulate"
               d="M 91.714814,94.239619 C 91.714814,94.239619 123.09246,84.667502 125.59902,83.928892 C 125.90917,83.837426 126.37009,83.105126 126.76279,82.977006 C 126.98315,82.905114 127.81366,83.094182 127.91305,83.329717 L 128.00502,83.54767 L 128.53677,84.807889 L 128.62992,85.028637 C 128.7293,85.264175 128.24003,85.883813 128.01967,85.955705 C 127.62697,86.083822 126.7332,85.790304 126.43026,85.898857 C 123.9824,86.776606 93.099031,97.520099 93.099031,97.520099 C 93.030208,97.606357 92.567078,97.741762 92.428447,97.66258 L 92.029924,96.718115 L 91.498168,95.457897 L 91.100824,94.516225 C 91.207001,94.352235 91.509605,94.246831 91.714814,94.239619 z"
               id="path3804"
               sodipodi:nodetypes="ccsccccsccccccc" />
            <rect
               style="fill:#a9aa63;fill-opacity:1;fill-rule:nonzero;stroke:#a9aa63;stroke-width:0.10188773;stroke-linecap:round;stroke-linejoin:round;stroke-miterlimit:4;stroke-dasharray:none;stroke-dashoffset:0;stroke-opacity:1"
               id="rect3806"
               width="1.1559747"
               height="4.4818048"
               x="-49.182961"
               y="117.99478"
               ry="0.52441567"
               transform="matrix(-0.9506852,0.3101575,0.3887636,0.9213375,0,0)" />
          </g>
          <path
             id="path28915"
             d="M 158.24733,42.996512 C 157.85463,43.124632 157.40123,43.873794 157.09108,43.965262 C 154.66567,44.679958 126.21474,53.352928 124.30984,53.934012 C 124.18298,53.694277 123.88338,53.567598 123.62234,53.652762 L 123.52859,53.684012 C 123.27323,53.767318 123.14524,54.028599 123.21609,54.277762 C 123.01729,54.284749 122.70556,54.372479 122.59109,54.527762 C 122.34884,54.606795 122.06421,54.843229 121.99734,55.090262 L 122.34109,55.902762 C 122.27372,56.096755 122.11586,56.206418 121.90359,56.184012 C 121.89659,56.179892 121.87949,56.187903 121.87234,56.184012 C 121.69654,56.088407 121.48725,56.053436 121.27859,56.121512 C 120.91949,56.238668 120.7391,56.587008 120.87234,56.902762 C 121.00557,57.218516 121.41949,57.363666 121.77859,57.246512 C 122.00895,57.171355 122.13632,57.005699 122.18484,56.809012 C 122.32031,56.701826 122.51117,56.694214 122.68484,56.777762 L 123.05984,57.621512 C 123.29378,57.770403 123.69259,57.763042 123.93484,57.684012 C 124.07347,57.763194 124.52226,57.645273 124.59109,57.559012 C 124.7241,57.783638 125.02597,57.891429 125.27859,57.809012 L 125.37234,57.777762 C 125.62769,57.694452 125.75568,57.433175 125.68484,57.184012 C 127.57955,56.524867 155.56713,46.783021 157.93483,45.934012 C 158.23777,45.825459 159.13588,46.12463 159.52858,45.996512 C 159.74894,45.92462 160.22172,45.294546 160.12233,45.059012 L 160.46608,44.965262 L 159.74733,43.246512 L 159.40358,43.371512 C 159.30419,43.135977 158.46769,42.924621 158.24733,42.996512 z"
             style="opacity:0.44174757;fill:url(#linearGradient6464);fill-opacity:1;fill-rule:evenodd;stroke:#a9aa63;stroke-width:0.10170823;stroke-linecap:round;stroke-linejoin:round;marker:none;marker-start:none;marker-mid:none;marker-end:none;stroke-miterlimit:4;stroke-dasharray:none;stroke-dashoffset:0;stroke-opacity:1;visibility:visible;display:inline;overflow:visible;enable-background:accumulate" />
        </g>
        <g
           id="g7289"
           transform="matrix(-0.9065283,-0.3299494,-0.3299494,0.9065283,227.25201,54.020048)">
          <g
             transform="translate(31.519625,-39.972239)"
             id="g7291">
            <path
               style="fill:#9a7f46;fill-opacity:1;fill-rule:evenodd;stroke:#a9aa63;stroke-width:0.10170823;stroke-linecap:round;stroke-linejoin:round;marker:none;marker-start:none;marker-mid:none;marker-end:none;stroke-miterlimit:4;stroke-dasharray:none;stroke-dashoffset:0;stroke-opacity:1;visibility:visible;display:inline;overflow:visible;enable-background:accumulate"
               d="M 90.876666,95.767117 L 91.323529,96.826147 C 91.099785,96.638994 90.805545,96.634038 90.638034,96.820904 L 90.360954,96.16425 C 90.626542,96.209819 90.84591,96.037301 90.876666,95.767117 z"
               id="path7293"
               sodipodi:nodetypes="ccccc" />
            <path
               style="fill:#a9aa63;fill-opacity:1;fill-rule:evenodd;stroke:#a9aa63;stroke-width:0.10170823;stroke-linecap:round;stroke-linejoin:round;marker:none;marker-start:none;marker-mid:none;marker-end:none;stroke-miterlimit:4;stroke-dasharray:none;stroke-dashoffset:0;stroke-opacity:1;visibility:visible;display:inline;overflow:visible;enable-background:accumulate"
               d="M 91.09914,94.512232 L 91.431435,94.451506 L 92.009175,95.820702 L 92.148304,96.150425 L 92.727223,97.522416 L 92.430299,97.66697 C 92.188051,97.745999 91.808005,97.748699 91.574064,97.599808 L 91.105977,96.490481 L 90.966848,96.160756 L 90.498761,95.051429 C 90.565641,94.804397 90.856894,94.591265 91.09914,94.512232 z"
               id="path7295" />
            <path
               sodipodi:type="arc"
               style="fill:#d4d6a5;fill-opacity:1;fill-rule:nonzero;stroke:#a9aa63;stroke-width:0.99999988;stroke-linecap:round;stroke-linejoin:round;stroke-miterlimit:4;stroke-dasharray:none;stroke-dashoffset:0;stroke-opacity:1"
               id="path7297"
               sodipodi:cx="1737.4087"
               sodipodi:cy="506.64789"
               sodipodi:rx="6.3972163"
               sodipodi:ry="6.3972163"
               d="M 1743.8059,506.64789 A 6.3972163,6.3972163 0 1 1 1731.0115,506.64789 A 6.3972163,6.3972163 0 1 1 1743.8059,506.64789 z"
               transform="matrix(-0.1016904,3.3176118e-2,3.7729944e-2,8.9416841e-2,247.59543,-6.2889111)" />
            <rect
               style="fill:#d4d6a5;fill-opacity:1;fill-rule:nonzero;stroke:#a9aa63;stroke-width:0.10188773;stroke-linecap:round;stroke-linejoin:round;stroke-miterlimit:4;stroke-dasharray:none;stroke-dashoffset:0;stroke-opacity:1"
               id="rect7299"
               width="0.61193997"
               height="1.8722575"
               x="-86.112473"
               y="119.29958"
               ry="0"
               transform="matrix(-0.9506852,0.3101575,0.3887636,0.9213375,0,0)" />
            <path
               style="fill:url(#radialGradient7307);fill-opacity:1;fill-rule:evenodd;stroke:#a9aa63;stroke-width:0.10170823;stroke-linecap:round;stroke-linejoin:round;marker:none;marker-start:none;marker-mid:none;marker-end:none;stroke-miterlimit:4;stroke-dasharray:none;stroke-dashoffset:0;stroke-opacity:1;visibility:visible;display:inline;overflow:visible;enable-background:accumulate"
               d="M 91.714814,94.239619 C 91.714814,94.239619 123.09246,84.667502 125.59902,83.928892 C 125.90917,83.837426 126.37009,83.105126 126.76279,82.977006 C 126.98315,82.905114 127.81366,83.094182 127.91305,83.329717 L 128.00502,83.54767 L 128.53677,84.807889 L 128.62992,85.028637 C 128.7293,85.264175 128.24003,85.883813 128.01967,85.955705 C 127.62697,86.083822 126.7332,85.790304 126.43026,85.898857 C 123.9824,86.776606 93.099031,97.520099 93.099031,97.520099 C 93.030208,97.606357 92.567078,97.741762 92.428447,97.66258 L 92.029924,96.718115 L 91.498168,95.457897 L 91.100824,94.516225 C 91.207001,94.352235 91.509605,94.246831 91.714814,94.239619 z"
               id="path7301"
               sodipodi:nodetypes="ccsccccsccccccc" />
            <rect
               style="fill:#a9aa63;fill-opacity:1;fill-rule:nonzero;stroke:#a9aa63;stroke-width:0.10188773;stroke-linecap:round;stroke-linejoin:round;stroke-miterlimit:4;stroke-dasharray:none;stroke-dashoffset:0;stroke-opacity:1"
               id="rect7303"
               width="1.1559747"
               height="4.4818048"
               x="-49.182961"
               y="117.99478"
               ry="0.52441567"
               transform="matrix(-0.9506852,0.3101575,0.3887636,0.9213375,0,0)" />
          </g>
          <path
             id="path7305"
             d="M 158.24733,42.996512 C 157.85463,43.124632 157.40123,43.873794 157.09108,43.965262 C 154.66567,44.679958 126.21474,53.352928 124.30984,53.934012 C 124.18298,53.694277 123.88338,53.567598 123.62234,53.652762 L 123.52859,53.684012 C 123.27323,53.767318 123.14524,54.028599 123.21609,54.277762 C 123.01729,54.284749 122.70556,54.372479 122.59109,54.527762 C 122.34884,54.606795 122.06421,54.843229 121.99734,55.090262 L 122.34109,55.902762 C 122.27372,56.096755 122.11586,56.206418 121.90359,56.184012 C 121.89659,56.179892 121.87949,56.187903 121.87234,56.184012 C 121.69654,56.088407 121.48725,56.053436 121.27859,56.121512 C 120.91949,56.238668 120.7391,56.587008 120.87234,56.902762 C 121.00557,57.218516 121.41949,57.363666 121.77859,57.246512 C 122.00895,57.171355 122.13632,57.005699 122.18484,56.809012 C 122.32031,56.701826 122.51117,56.694214 122.68484,56.777762 L 123.05984,57.621512 C 123.29378,57.770403 123.69259,57.763042 123.93484,57.684012 C 124.07347,57.763194 124.52226,57.645273 124.59109,57.559012 C 124.7241,57.783638 125.02597,57.891429 125.27859,57.809012 L 125.37234,57.777762 C 125.62769,57.694452 125.75568,57.433175 125.68484,57.184012 C 127.57955,56.524867 155.56713,46.783021 157.93483,45.934012 C 158.23777,45.825459 159.13588,46.12463 159.52858,45.996512 C 159.74894,45.92462 160.22172,45.294546 160.12233,45.059012 L 160.46608,44.965262 L 159.74733,43.246512 L 159.40358,43.371512 C 159.30419,43.135977 158.46769,42.924621 158.24733,42.996512 z"
             style="opacity:0.44174757;fill:url(#linearGradient7309);fill-opacity:1;fill-rule:evenodd;stroke:#a9aa63;stroke-width:0.10170823;stroke-linecap:round;stroke-linejoin:round;marker:none;marker-start:none;marker-mid:none;marker-end:none;stroke-miterlimit:4;stroke-dasharray:none;stroke-dashoffset:0;stroke-opacity:1;visibility:visible;display:inline;overflow:visible;enable-background:accumulate" />
        </g>
      </g>
    </g>
    <rect
       style="opacity:1;fill:url(#linearGradient3473);fill-opacity:1;stroke:#785c00;stroke-width:0.95320724999999995;stroke-linejoin:bevel;stroke-opacity:1"
       id="rect2675"
       width="135.0468"
       height="49.955906"
       x="330.23456"
       y="621.58508" />
  </g>
</svg>
